<svg aria-hidden="true" style="position: absolute; width: 0; height: 0; overflow: hidden;" version="1.1" xmlns="http://www.w3.org/2000/svg" xmlns:xlink="http://www.w3.org/1999/xlink">
<defs>
<symbol id="facebook" viewBox="0 0 32 32">
<path d="M4.688 32h10.438v-11.375h-3.75v-3.75h3.75v-4.688c0-2.585 2.103-4.688 4.688-4.688h4.688v3.75h-3.75c-1.034 0-1.875 0.841-1.875 1.875v3.75h5.456l-0.625 3.75h-4.831v11.375h8.438c2.585 0 4.688-2.103 4.688-4.688v-22.625c0-2.585-2.103-4.688-4.688-4.688h-22.625c-2.585 0-4.688 2.103-4.688 4.688v22.625c0 2.585 2.103 4.688 4.688 4.688zM1.875 4.688c0-1.551 1.262-2.813 2.813-2.813h22.625c1.551 0 2.813 1.262 2.813 2.813v22.625c0 1.551-1.262 2.813-2.813 2.813h-6.563v-7.625h4.544l1.25-7.5h-5.794v-1.875h5.625v-7.5h-6.563c-3.619 0-6.563 2.944-6.563 6.563v2.813h-3.75v7.5h3.75v7.625h-8.563c-1.551 0-2.813-1.262-2.813-2.813z"></path>
</symbol>
<symbol id="instagram" viewBox="0 0 32 32">
<path d="M4.688 32h22.625c2.585 0 4.688-2.103 4.688-4.688v-22.625c0-2.585-2.103-4.688-4.688-4.688h-22.625c-2.585 0-4.688 2.103-4.688 4.688v22.625c0 2.585 2.103 4.688 4.688 4.688zM1.875 4.688c0-1.551 1.262-2.813 2.813-2.813h22.625c1.551 0 2.813 1.262 2.813 2.813v22.625c0 1.551-1.262 2.813-2.813 2.813h-22.625c-1.551 0-2.813-1.262-2.813-2.813z"></path>
<path d="M16 24.438c4.652 0 8.438-3.785 8.438-8.438s-3.785-8.438-8.438-8.438-8.438 3.785-8.438 8.438 3.785 8.438 8.438 8.438zM16 9.438c3.619 0 6.563 2.944 6.563 6.563s-2.944 6.563-6.563 6.563-6.563-2.944-6.563-6.563 2.944-6.563 6.563-6.563z"></path>
<path d="M25.375 9.438c1.551 0 2.813-1.262 2.813-2.813s-1.262-2.813-2.813-2.813-2.813 1.262-2.813 2.813 1.262 2.813 2.813 2.813zM25.375 5.688c0.517 0 0.938 0.421 0.938 0.938s-0.421 0.938-0.938 0.938-0.938-0.421-0.938-0.938 0.421-0.938 0.938-0.938z"></path>
</symbol>
<symbol id="telegram" viewBox="0 0 32 32">
<path d="M7.528 18.042l3.972 9.93 5.172-5.172 8.846 7.032 6.419-27.582-32 12.843zM5.032 15.064l15.253-6.122-12.13 7.335zM23.003 9.486l-10.124 9.262-1.218 4.589-2.252-5.63zM13.638 23.188l0.614-2.312 0.947 0.752zM24.366 26.525l-9.212-7.322 13.869-12.688z"></path>
</symbol>
<symbol id="github" viewBox="0 0 32 32">
<path d="M16 0c-8.794 0-16 7.269-16 16.063 0 8.743 7.141 15.938 16 15.938 8.848 0 16-7.184 16-15.938 0-8.794-7.206-16.063-16-16.063zM18.813 29.844c-0.9 0.188-1.856 0.281-2.813 0.281s-1.913-0.094-2.813-0.281v-4.387c0-1.050 0.281-1.425 0.656-1.931 0.191-0.218 0.306-0.414 1.162-1.706l-1.444-0.225c-3.713-0.544-5.175-2.475-5.756-3.975-0.75-2.006-0.356-4.519 0.994-6.112 0.206-0.244 0.375-0.656 0.225-1.088-0.281-0.863-0.244-2.231-0.056-2.756 0.994 0.142 2.016 0.854 2.869 1.369 0.393 0.229 0.599 0.169 0.787 0.188 0.685-0.143 1.754-0.488 3.394-0.488 1.012 0 2.081 0.15 3.131 0.45 0.188-0.004 0.489 0.155 1.012-0.15 0.891-0.543 1.879-1.231 2.869-1.369 0.188 0.525 0.225 1.894-0.056 2.756-0.15 0.431 0.019 0.844 0.225 1.088 1.35 1.594 1.744 4.106 0.994 6.112-0.581 1.5-2.044 3.431-5.756 3.975l-1.444 0.225c0.885 1.335 0.978 1.496 1.163 1.706 0.375 0.506 0.656 0.881 0.656 1.931zM20.688 29.3v-3.844c0-1.069-0.225-1.781-0.525-2.306 2.85-0.769 4.875-2.456 5.775-4.875 0.956-2.55 0.525-5.587-1.069-7.688 0.282-1.256 0.282-3.262-0.394-4.2-0.3-0.412-0.713-0.637-1.238-0.637-0.019 0-0.019 0-0.019 0-1.454 0.079-2.598 0.811-3.825 1.556-1.125-0.3-2.269-0.45-3.413-0.45-1.162 0-2.325 0.169-3.356 0.45-1.292-0.779-2.425-1.479-3.919-1.556-0.469 0-0.881 0.225-1.181 0.637-0.675 0.938-0.675 2.944-0.394 4.2-1.594 2.1-2.025 5.156-1.069 7.688 0.9 2.419 2.925 4.106 5.775 4.875-0.233 0.407-0.417 0.932-0.489 1.643-0.576 0.198-1.075 0.263-1.539 0.127-0.49-0.145-0.871-0.472-1.203-1.029-0.745-1.251-2.013-2.272-3.457-2.139l0.165 1.868c0.669-0.061 1.334 0.646 1.68 1.23 0.57 0.96 1.339 1.59 2.284 1.87 0.702 0.207 1.344 0.202 2.034 0.054v2.528c-5.456-1.913-9.438-7.125-9.438-13.238 0-7.762 6.363-14.188 14.125-14.188s14.125 6.425 14.125 14.188c0 6.113-3.981 11.325-9.438 13.238z"></path>
</symbol>
<symbol id="linkedin" viewBox="0 0 32 32">
<path d="M27.313 0h-22.625c-2.585 0-4.688 2.103-4.688 4.688v22.625c0 2.585 2.103 4.688 4.688 4.688h22.625c2.585 0 4.688-2.103 4.688-4.688v-22.625c0-2.585-2.103-4.688-4.688-4.688zM30.125 27.313c0 1.551-1.262 2.813-2.813 2.813h-22.625c-1.551 0-2.813-1.262-2.813-2.813v-22.625c0-1.551 1.262-2.813 2.813-2.813h22.625c1.551 0 2.813 1.262 2.813 2.813z"></path>
<path d="M5.688 26.375h5.625v-13.25h-5.625zM7.563 15h1.875v9.5h-1.875z"></path>
<path d="M20.693 13.125c-0.002 0-0.004 0-0.005 0-0.648 0-1.28 0.108-1.875 0.319v-0.319h-5.625v13.25h5.625v-6.688c0-0.517 0.421-0.938 0.938-0.938s0.938 0.421 0.938 0.938v6.688h5.625v-7.332c0-3.034-2.461-5.915-5.62-5.918zM24.438 24.5h-1.875v-4.813c0-1.551-1.262-2.813-2.813-2.813s-2.812 1.262-2.813 2.812v4.813h-1.875v-9.5h1.875v1.876l1.5-1.127c0.653-0.49 1.43-0.749 2.25-0.749h0.004c1.996 0.002 3.746 1.891 3.746 4.043z"></path>
<path d="M5.688 11.25h5.625v-5.625h-5.625zM7.563 7.5h1.875v1.875h-1.875z"></path>
</symbol>
<symbol id="cv" viewBox="0 0 32 32">
<path d="M24.667 32h-17.333c-1.84-0.002-3.331-1.493-3.333-3.333v-25.334c0-1.837 1.495-3.333 3.333-3.333h17.333c1.839 0 3.333 1.496 3.333 3.333v25.333c0 1.837-1.495 3.333-3.333 3.333zM7.333 1.333c-1.103 0-2 0.897-2 2v25.333c0 1.103 0.897 2 2 2h17.333c1.103 0 2-0.897 2-2v-25.333c0-1.103-0.897-2-2-2z"></path>
<path d="M23.333 22.667h-14.667c-0.368 0-0.667-0.298-0.667-0.667s0.298-0.667 0.667-0.667v0h14.667c0.368 0 0.667 0.298 0.667 0.667s-0.298 0.667-0.667 0.667v0zM23.333 17.333h-14.667c-0.368 0-0.667-0.298-0.667-0.667s0.298-0.667 0.667-0.667v0h14.667c0.368 0 0.667 0.298 0.667 0.667s-0.298 0.667-0.667 0.667v0zM23.333 28h-14.667c-0.368 0-0.667-0.298-0.667-0.667s0.298-0.667 0.667-0.667v0h14.667c0.368 0 0.667 0.298 0.667 0.667s-0.298 0.667-0.667 0.667v0zM14 12h-2.667c-1.103 0-2-0.897-2-2v-4c0-1.103 0.897-2 2-2h2.667c0.368 0 0.667 0.298 0.667 0.667s-0.298 0.667-0.667 0.667v0h-2.667c-0.368 0-0.667 0.298-0.667 0.667v0 4c0 0.368 0.298 0.667 0.667 0.667v0h2.667c0.368 0 0.667 0.298 0.667 0.667s-0.298 0.667-0.667 0.667v0zM20 12c-0 0-0 0-0 0-0.3 0-0.553-0.198-0.637-0.47l-0.001-0.005-2-6.667c-0.022-0.064-0.035-0.138-0.035-0.214 0-0.368 0.298-0.667 0.667-0.667 0.308 0 0.567 0.209 0.644 0.492l0.001 0.005 1.363 4.539 1.361-4.537c0.078-0.288 0.337-0.497 0.645-0.497 0.368 0 0.667 0.298 0.667 0.667 0 0.077-0.013 0.15-0.037 0.219l-1.999 6.662c-0.085 0.276-0.338 0.473-0.637 0.473-0 0-0 0-0 0h0z"></path>
</symbol>
<symbol id="tick" viewBox="0 0 32 32">
<path d="M6 15.596l7.321 7.321 13.596-13.596"></path>
</symbol>
</defs>
</svg>
